<svg xmlns="http://www.w3.org/2000/svg" xmlns:xlink="http://www.w3.org/1999/xlink" width="77" height="70" viewBox="0 0 77 70">
  <defs>
    <linearGradient id="linear-gradient" x1="0.489" y1="1.177" x2="0.522" y2="0.008" gradientUnits="objectBoundingBox">
      <stop offset="0.202" stop-color="#4e28b6"/>
      <stop offset="1" stop-color="#6752ca"/>
    </linearGradient>
    <linearGradient id="linear-gradient-2" x1="0.473" y1="0.193" x2="0.516" y2="1.129" gradientUnits="objectBoundingBox">
      <stop offset="0" stop-color="#5830c8"/>
      <stop offset="0.249" stop-color="#542ac2"/>
      <stop offset="0.58" stop-color="#4b1bb1"/>
      <stop offset="0.956" stop-color="#3c0395"/>
      <stop offset="0.999" stop-color="#3a0092"/>
    </linearGradient>
  </defs>
  <g id="cardtype_1" transform="translate(1129.429 -83.2)">
    <path id="Path_509" data-name="Path 509" d="M-1090.929,83.2v59.719a20.649,20.649,0,0,1-10.985,9.106,20.826,20.826,0,0,1-9.407,1.025,20.565,20.565,0,0,1-17.956-17.816,20.389,20.389,0,0,1,1.031-9.346,20.4,20.4,0,0,1,3.634-6.306Z" fill="url(#linear-gradient)"/>
    <path id="Path_510" data-name="Path 510" d="M-1090.929,83.2v59.719a20.648,20.648,0,0,0,10.985,9.106,20.824,20.824,0,0,0,9.407,1.025,20.565,20.565,0,0,0,17.956-17.816,20.389,20.389,0,0,0-1.031-9.346,20.42,20.42,0,0,0-3.634-6.306Z" fill="url(#linear-gradient-2)"/>
  </g>
</svg>
