<svg id="num_10" xmlns="http://www.w3.org/2000/svg" width="22.767" height="20.48" viewBox="0 0 22.767 20.48">
  <path id="Path_555" data-name="Path 555" d="M-1136.5,536.027h-3.869V519.471l-3.637.095V516.6l7.506-.766Z" transform="translate(1144.004 -515.834)" fill="#3e04b1"/>
  <path id="Path_556" data-name="Path 556" d="M-1121.237,528.809a8.29,8.29,0,0,1-1.682,5.509,5.506,5.506,0,0,1-4.429,2,5.573,5.573,0,0,1-4.478-2,8.265,8.265,0,0,1-1.688-5.509v-5.455a8.329,8.329,0,0,1,1.681-5.5,5.516,5.516,0,0,1,4.457-2.017,5.521,5.521,0,0,1,4.45,2.017,8.3,8.3,0,0,1,1.689,5.5Zm-3.869-5.8a6.361,6.361,0,0,0-.609-3.063,1.851,1.851,0,0,0-1.661-1.094,1.84,1.84,0,0,0-1.675,1.094,6.5,6.5,0,0,0-.594,3.063v6.111a6.491,6.491,0,0,0,.6,3.1,1.864,1.864,0,0,0,1.7,1.087,1.821,1.821,0,0,0,1.647-1.087,6.559,6.559,0,0,0,.6-3.1Z" transform="translate(1144.004 -515.834)" fill="#3e04b1"/>
</svg>
