<svg id="num_11" xmlns="http://www.w3.org/2000/svg" width="11.705" height="20.193" viewBox="0 0 11.705 20.193">
  <path id="Path_562" data-name="Path 562" d="M-973.368,516.121h3.855v13.713a6.768,6.768,0,0,1-1.592,4.724,5.278,5.278,0,0,1-4.1,1.756,6.156,6.156,0,0,1-4.443-1.558,5.858,5.858,0,0,1-1.573-4.553l.041-.082h3.733a3.825,3.825,0,0,0,.622,2.406,1.976,1.976,0,0,0,1.62.78,1.506,1.506,0,0,0,1.319-.93,5.289,5.289,0,0,0,.513-2.543Z" transform="translate(981.218 -516.121)" fill="#3e04b1"/>
</svg>
