<svg xmlns="http://www.w3.org/2000/svg" xmlns:xlink="http://www.w3.org/1999/xlink" width="135" height="140" viewBox="0 0 135 140">
  <defs>
    <clipPath id="clip-path">
      <rect id="Rectangle_236" data-name="Rectangle 236" width="135" height="140" rx="16" transform="translate(-1457.173 666.263)" fill="none"/>
    </clipPath>
    <linearGradient id="linear-gradient" x1="-0.185" y1="1.109" x2="1.48" y2="0.253" gradientUnits="objectBoundingBox">
      <stop offset="0.176" stop-color="#ffe6e6"/>
      <stop offset="1" stop-color="#fad8c2"/>
    </linearGradient>
    <linearGradient id="linear-gradient-2" x1="-0.331" y1="0.5" x2="1" y2="0.5" xlink:href="#linear-gradient"/>
    <linearGradient id="linear-gradient-3" x1="0.452" y1="0.148" x2="1.163" y2="1.101" gradientUnits="objectBoundingBox">
      <stop offset="0" stop-color="#fad8c2"/>
      <stop offset="1" stop-color="#ffcdba"/>
    </linearGradient>
    <linearGradient id="linear-gradient-4" x1="0.507" y1="0.838" x2="0.491" y2="0.113" gradientUnits="objectBoundingBox">
      <stop offset="0.001" stop-color="#f4c5ac"/>
      <stop offset="0.176" stop-color="#f2bfa4"/>
      <stop offset="0.581" stop-color="#f0b798"/>
      <stop offset="1" stop-color="#f0b595"/>
    </linearGradient>
    <linearGradient id="linear-gradient-5" x1="12.785" y1="712.183" x2="61.969" y2="3563.684" gradientUnits="objectBoundingBox">
      <stop offset="0" stop-color="#392199"/>
      <stop offset="0.228" stop-color="#522199"/>
      <stop offset="0.711" stop-color="#942199"/>
      <stop offset="1" stop-color="#be2199"/>
    </linearGradient>
    <linearGradient id="linear-gradient-6" x1="-1723.358" y1="-3990.483" x2="1724.109" y2="3989.765" xlink:href="#linear-gradient-5"/>
    <linearGradient id="linear-gradient-7" x1="-25.816" y1="-1710.64" x2="23.369" y2="1486.497" xlink:href="#linear-gradient-5"/>
    <linearGradient id="linear-gradient-8" x1="-0.315" y1="0.5" x2="1" y2="0.5" gradientUnits="objectBoundingBox">
      <stop offset="0" stop-color="#be2199" stop-opacity="0"/>
      <stop offset="0.373" stop-color="#882199" stop-opacity="0.404"/>
      <stop offset="0.799" stop-color="#4f2199" stop-opacity="0.831"/>
      <stop offset="1" stop-color="#392199"/>
    </linearGradient>
    <linearGradient id="linear-gradient-9" y1="0.5" x2="1.315" y2="0.5" gradientUnits="objectBoundingBox">
      <stop offset="0" stop-color="#392199"/>
      <stop offset="0.201" stop-color="#4f2199" stop-opacity="0.831"/>
      <stop offset="0.627" stop-color="#882199" stop-opacity="0.404"/>
      <stop offset="1" stop-color="#be2199" stop-opacity="0"/>
    </linearGradient>
    <linearGradient id="linear-gradient-10" x1="-4327.388" y1="-20752.184" x2="-1289.974" y2="-6187.863" xlink:href="#linear-gradient-5"/>
    <linearGradient id="linear-gradient-11" x1="0.444" y1="-0.132" x2="0.837" y2="0.795" xlink:href="#linear-gradient-5"/>
    <linearGradient id="linear-gradient-12" y1="0.5" x2="1" y2="0.5" gradientUnits="objectBoundingBox">
      <stop offset="0" stop-color="#f8ecff"/>
      <stop offset="0.548" stop-color="#ebf5ff"/>
      <stop offset="1" stop-color="#dff"/>
    </linearGradient>
    <linearGradient id="linear-gradient-14" x1="0.294" y1="0.087" x2="0.839" y2="0.829" xlink:href="#linear-gradient-4"/>
    <linearGradient id="linear-gradient-15" x1="0" y1="0.5" x2="1" y2="0.5" xlink:href="#linear-gradient-3"/>
    <linearGradient id="linear-gradient-16" x1="-0.12" y1="0.236" x2="1.693" y2="1.505" gradientUnits="objectBoundingBox">
      <stop offset="0" stop-color="#ff967d"/>
      <stop offset="1" stop-color="#ff6f72"/>
    </linearGradient>
    <linearGradient id="linear-gradient-17" x1="2.333" y1="1.503" x2="0.055" y2="0.053" gradientUnits="objectBoundingBox">
      <stop offset="0.368" stop-color="#ff967d"/>
      <stop offset="0.884" stop-color="#ffb4a0"/>
    </linearGradient>
    <linearGradient id="linear-gradient-18" x1="0.068" y1="0.166" x2="3.087" y2="2.497" gradientUnits="objectBoundingBox">
      <stop offset="0.134" stop-color="#f4c5ac"/>
      <stop offset="0.286" stop-color="#f2bfa4"/>
      <stop offset="0.637" stop-color="#f0b798"/>
      <stop offset="1" stop-color="#f0b595"/>
    </linearGradient>
    <linearGradient id="linear-gradient-19" y1="0.5" x2="1" y2="0.5" gradientUnits="objectBoundingBox">
      <stop offset="0" stop-color="#2c2b50"/>
      <stop offset="0.394" stop-color="#312d62"/>
      <stop offset="1" stop-color="#38327b"/>
    </linearGradient>
    <linearGradient id="linear-gradient-20" x1="0.243" y1="0.148" x2="1.189" y2="0.87" xlink:href="#linear-gradient-19"/>
    <linearGradient id="linear-gradient-21" x1="0.812" y1="1.542" x2="0.322" y2="-0.095" gradientUnits="objectBoundingBox">
      <stop offset="0.351" stop-color="#2c2b50" stop-opacity="0"/>
      <stop offset="0.582" stop-color="#343470" stop-opacity="0.384"/>
      <stop offset="0.866" stop-color="#3d3e95" stop-opacity="0.827"/>
      <stop offset="0.999" stop-color="#4143a4"/>
    </linearGradient>
    <linearGradient id="linear-gradient-22" x1="0.136" y1="0.063" x2="1.254" y2="1.403" xlink:href="#linear-gradient-19"/>
    <linearGradient id="linear-gradient-23" x1="0.5" y1="1" x2="0.5" y2="0" xlink:href="#linear-gradient-19"/>
    <linearGradient id="linear-gradient-24" x1="-2.427" y1="0.1" x2="4.274" y2="1.015" gradientUnits="objectBoundingBox">
      <stop offset="0" stop-color="#7769ca"/>
      <stop offset="1" stop-color="#6744ca"/>
    </linearGradient>
    <linearGradient id="linear-gradient-25" x1="-2.088" y1="0.164" x2="5.231" y2="1.219" gradientUnits="objectBoundingBox">
      <stop offset="0" stop-color="#6941b5"/>
      <stop offset="0.451" stop-color="#5131a7"/>
      <stop offset="1" stop-color="#392199"/>
    </linearGradient>
    <linearGradient id="linear-gradient-26" x1="1.035" y1="-0.173" x2="-0.295" y2="1.769" xlink:href="#linear-gradient-3"/>
    <linearGradient id="linear-gradient-27" x1="6.624" y1="-32.476" x2="7.331" y2="-32.476" xlink:href="#linear-gradient-18"/>
    <linearGradient id="linear-gradient-28" x1="0.02" y1="0.117" x2="1.066" y2="0.952" gradientUnits="objectBoundingBox">
      <stop offset="0.134" stop-color="#f4c5ac" stop-opacity="0"/>
      <stop offset="0.225" stop-color="#f3c1a7" stop-opacity="0.204"/>
      <stop offset="0.331" stop-color="#f2bea2" stop-opacity="0.412"/>
      <stop offset="0.441" stop-color="#f1bb9e" stop-opacity="0.592"/>
      <stop offset="0.55" stop-color="#f1b99a" stop-opacity="0.741"/>
      <stop offset="0.66" stop-color="#f0b798" stop-opacity="0.855"/>
      <stop offset="0.771" stop-color="#f0b696" stop-opacity="0.933"/>
      <stop offset="0.884" stop-color="#f0b595" stop-opacity="0.984"/>
      <stop offset="1" stop-color="#f0b595"/>
    </linearGradient>
    <linearGradient id="linear-gradient-30" x1="0.159" y1="-0.515" x2="0.91" y2="1.369" gradientUnits="objectBoundingBox">
      <stop offset="0" stop-color="#392199"/>
      <stop offset="0.549" stop-color="#5131a7"/>
      <stop offset="1" stop-color="#6941b5"/>
    </linearGradient>
    <linearGradient id="linear-gradient-31" x1="0.012" y1="-1.785" x2="0.884" y2="2.905" xlink:href="#linear-gradient-25"/>
    <linearGradient id="linear-gradient-32" x1="0.5" y1="2.572" x2="0.5" y2="0.21" gradientUnits="objectBoundingBox">
      <stop offset="0" stop-color="#392199"/>
      <stop offset="0.173" stop-color="#3d2299"/>
      <stop offset="0.356" stop-color="#49259c"/>
      <stop offset="0.544" stop-color="#5f2ba1"/>
      <stop offset="0.735" stop-color="#7c32a8"/>
      <stop offset="0.927" stop-color="#a23cb1"/>
      <stop offset="1" stop-color="#b341b5"/>
    </linearGradient>
    <linearGradient id="linear-gradient-34" x1="0.5" y1="5.156" x2="0.5" y2="-3.703" xlink:href="#linear-gradient-32"/>
    <linearGradient id="linear-gradient-37" x1="0.507" y1="0.838" x2="0.491" y2="0.113" gradientUnits="objectBoundingBox">
      <stop offset="0.351" stop-color="#2c2b50"/>
      <stop offset="0.756" stop-color="#393a87"/>
      <stop offset="0.999" stop-color="#4143a4"/>
    </linearGradient>
    <linearGradient id="linear-gradient-38" x1="0.39" y1="0.506" x2="0.917" y2="0.383" xlink:href="#linear-gradient-19"/>
  </defs>
  <g id="black_k2" transform="translate(1457.173 -666.263)">
    <g id="Group_205" data-name="Group 205" clip-path="url(#clip-path)">
      <g id="Group_204" data-name="Group 204">
        <path id="Path_455" data-name="Path 455" d="M-1394.355,764.6v6.792a10.756,10.756,0,0,0,9.7-6.111,10.728,10.728,0,0,0,1.051-4.644h-10.755Z" fill="none"/>
        <g id="Group_190" data-name="Group 190">
          <path id="Path_456" data-name="Path 456" d="M-1384.739,765.433a11.2,11.2,0,0,1-9.686,8.9A9.724,9.724,0,0,0-1384.739,765.433Z" fill="none"/>
          <path id="Path_457" data-name="Path 457" d="M-1406.775,755.961c-1.439,2.133.579,4.677,3.709,4.677h8.641v-22.98Z" fill="url(#linear-gradient)"/>
          <path id="Path_458" data-name="Path 458" d="M-1394.425,737.658h38.777v47.09h-26.544v-5.823h-12.234Z" fill="url(#linear-gradient-2)"/>
        </g>
        <path id="Path_459" data-name="Path 459" d="M-1367.19,757.171c-.046,0-.091,0-.136.007v.217C-1367.283,757.319-1367.234,757.246-1367.19,757.171Z" fill="none"/>
        <path id="Path_460" data-name="Path 460" d="M-1373.068,737.658h-21.357a10.678,10.678,0,0,0,10.678,10.678,10.626,10.626,0,0,0,5.966-1.821l.026,22.074-.037,15.845h22.145V737.658Z" fill="url(#linear-gradient-3)"/>
        <path id="Path_461" data-name="Path 461" d="M-1391.6,760.682h30.12s3.242,32.674-40.536,32.674A57.29,57.29,0,0,0-1391.6,760.682Z" fill="url(#linear-gradient-4)"/>
        <path id="Path_462" data-name="Path 462" d="M-1367.456,757.181c.042.072.089.141.13.214v-.217c-.031,0-.061,0-.093,0Z" fill="none"/>
        <g id="Group_194" data-name="Group 194">
          <g id="Group_192" data-name="Group 192">
            <path id="Path_463" data-name="Path 463" d="M-1377.6,806.007h0Z" fill="#5637b1"/>
            <path id="Path_464" data-name="Path 464" d="M-1355.861,806.007h0Z" fill="#5637b1"/>
            <path id="Path_465" data-name="Path 465" d="M-1388.265,778.255c.116,0,.23-.009.345-.009h-.352Z" fill="url(#linear-gradient-5)"/>
            <path id="Path_466" data-name="Path 466" d="M-1366.263,806.009h0Z" fill="url(#linear-gradient-6)"/>
            <path id="Path_467" data-name="Path 467" d="M-1344.26,778.254l.007-.008h-.327C-1344.473,778.247-1344.367,778.253-1344.26,778.254Z" fill="url(#linear-gradient-7)"/>
            <g id="Group_191" data-name="Group 191">
              <path id="Path_468" data-name="Path 468" d="M-1397.407,779.927c-.651.237-1.3.49-1.924.774a27.76,27.76,0,0,0-16.35,25.306h27.479l5.735-7.235Z" fill="#292172"/>
              <path id="Path_469" data-name="Path 469" d="M-1333.974,780.358c-.375-.155-.755-.3-1.138-.44l-14.946,18.854,5.736,7.235h27.478A27.766,27.766,0,0,0-1333.974,780.358Z" fill="#292172"/>
              <path id="Path_470" data-name="Path 470" d="M-1335.112,779.918a27.687,27.687,0,0,0-9.468-1.672h-43.34a27.625,27.625,0,0,0-9.487,1.681l14.94,18.845-5.735,7.235h43.88l-5.736-7.235Z" fill="#292172"/>
              <path id="Path_471" data-name="Path 471" d="M-1397.407,779.927c-.651.237-1.3.49-1.924.774a27.76,27.76,0,0,0-16.35,25.306h27.479l5.735-7.235Z" fill="url(#linear-gradient-8)"/>
              <path id="Path_472" data-name="Path 472" d="M-1333.974,780.358c-.375-.155-.755-.3-1.138-.44l-14.946,18.854,5.736,7.235h27.478A27.766,27.766,0,0,0-1333.974,780.358Z" fill="url(#linear-gradient-9)"/>
            </g>
            <path id="Path_473" data-name="Path 473" d="M-1344.6,778.246Z" fill="#292172"/>
            <path id="Path_475" data-name="Path 475" d="M-1366.264,806.007h0Z" fill="#5637b1"/>
            <path id="Path_476" data-name="Path 476" d="M-1366.264,806.007h0Z" fill="url(#linear-gradient-10)"/>
          </g>
          <path id="Path_477" data-name="Path 477" d="M-1354.789,806.008h-22.948l11.474-14.473Z" fill="#5637b1"/>
          <path id="Path_478" data-name="Path 478" d="M-1388.272,778.246h44.02l-22.01,27.763Z" fill="url(#linear-gradient-11)"/>
          <g id="Group_193" data-name="Group 193">
            <path id="Path_479" data-name="Path 479" d="M-1394.507,806.085l-.2-.156,5.674-7.156-13.126-16.558.2-.156,13.249,16.714-.062.078Z" fill="url(#linear-gradient-12)"/>
            <path id="Path_480" data-name="Path 480" d="M-1338.022,806.085l-5.8-7.312.062-.078,13.188-16.636.2.156-13.126,16.558,5.674,7.156Z" fill="url(#linear-gradient-12)"/>
          </g>
        </g>
        <path id="Path_481" data-name="Path 481" d="M-1366.882,737.658v28.026a14.752,14.752,0,0,0,14.825,14.677h10.513l-.146-42.7Z" fill="url(#linear-gradient-14)"/>
        <path id="Path_482" data-name="Path 482" d="M-1394.425,753.88a6.758,6.758,0,0,0-6.758,6.758h13.516A6.758,6.758,0,0,0-1394.425,753.88Z" fill="url(#linear-gradient-15)"/>
        <path id="Path_483" data-name="Path 483" d="M-1371.67,748.543a6.126,6.126,0,0,0-6.126-6.126v12.252A6.126,6.126,0,0,0-1371.67,748.543Z" fill="url(#linear-gradient-16)"/>
        <path id="Path_484" data-name="Path 484" d="M-1383.873,748.543a6.126,6.126,0,0,0,6.126,6.126V742.417A6.126,6.126,0,0,0-1383.873,748.543Z" fill="url(#linear-gradient-17)"/>
        <path id="Path_485" data-name="Path 485" d="M-1401.183,760.638h6.758V753.88A6.758,6.758,0,0,0-1401.183,760.638Z" fill="url(#linear-gradient-18)"/>
        <g id="Group_195" data-name="Group 195">
          <path id="Path_486" data-name="Path 486" d="M-1399.507,721.329l5.264,14.328H-1360V721.329Z" fill="#6752ca"/>
          <rect id="Rectangle_229" data-name="Rectangle 229" width="10.91" height="14.328" transform="translate(-1366.882 721.329)" fill="#5637b1"/>
          <rect id="Rectangle_230" data-name="Rectangle 230" width="10.841" height="14.328" transform="translate(-1377.792 721.329)" fill="#6744ca"/>
          <path id="Path_487" data-name="Path 487" d="M-1334.151,721.329l-3.772,14.328h-18.049V721.329Z" fill="#39218b"/>
        </g>
        <path id="Path_488" data-name="Path 488" d="M-1387.634,744.448a6.79,6.79,0,0,0,6.79-6.79h-13.581A6.79,6.79,0,0,0-1387.634,744.448Z" fill="#f4f2f2"/>
        <path id="Path_489" data-name="Path 489" d="M-1338.051,737.658h-26.556v28.308c0,8.187,4.293,14.825,12.48,14.825h25.68c-13.8-13.8-11.656-17.777-11.656-38.374Z" fill="url(#linear-gradient-19)"/>
        <path id="Path_490" data-name="Path 490" d="M-1388.429,742.417a4.759,4.759,0,0,0,4.759-4.759h-9.519A4.76,4.76,0,0,0-1388.429,742.417Z" fill="url(#linear-gradient-20)"/>
        <path id="Path_491" data-name="Path 491" d="M-1390.015,739.721a2.064,2.064,0,0,0,2.064-2.063h-4.127A2.063,2.063,0,0,0-1390.015,739.721Z" fill="#f4f2f2"/>
        <rect id="Rectangle_231" data-name="Rectangle 231" width="17.255" height="33.736" transform="translate(-1355.469 737.658)" fill="url(#linear-gradient-21)"/>
        <g id="Group_198" data-name="Group 198">
          <rect id="Rectangle_232" data-name="Rectangle 232" width="9.939" height="16.103" transform="translate(-1421.981 780.999)" fill="url(#linear-gradient-22)"/>
          <g id="Group_197" data-name="Group 197">
            <rect id="Rectangle_233" data-name="Rectangle 233" width="21.527" height="2.485" transform="translate(-1427.775 779.752)" fill="url(#linear-gradient-23)"/>
            <g id="Group_196" data-name="Group 196">
              <path id="Path_492" data-name="Path 492" d="M-1417.011,712.849l-4.97,4.97v61.933h4.97v-66.9Z" fill="url(#linear-gradient-24)"/>
              <path id="Path_493" data-name="Path 493" d="M-1412.042,717.819l-4.969-4.97v66.9h4.969Z" fill="url(#linear-gradient-25)"/>
            </g>
          </g>
        </g>
        <path id="Path_494" data-name="Path 494" d="M-1407.624,713.646h-.04l.021.034Z" fill="none"/>
        <g id="Group_201" data-name="Group 201">
          <g id="Group_200" data-name="Group 200">
            <g id="Group_199" data-name="Group 199">
              <path id="Path_495" data-name="Path 495" d="M-1421.325,791.535h0c-2.867,0-5.191,2.03-5.191,4.535v9.939h16.568V791.535Z" fill="url(#linear-gradient-26)"/>
              <path id="Path_496" data-name="Path 496" d="M-1417.011,786.565l-4.97,4.97h9.94Z" fill="url(#linear-gradient-27)"/>
            </g>
            <rect id="Rectangle_234" data-name="Rectangle 234" width="12.033" height="4.825" transform="translate(-1421.981 791.535)" fill="url(#linear-gradient-28)"/>
            <rect id="Rectangle_235" data-name="Rectangle 235" width="12.033" height="4.825" transform="translate(-1421.981 801.185)" fill="url(#linear-gradient-28)"/>
          </g>
        </g>
        <g id="Group_202" data-name="Group 202">
          <path id="Path_497" data-name="Path 497" d="M-1342.454,729.633l-8.125-8.125-8.125,8.125-8.125-8.125-8.125,8.125-8.125-8.125-8.125,8.125-8.3-8.3h65.356Z" fill="url(#linear-gradient-30)"/>
          <path id="Path_498" data-name="Path 498" d="M-1350.579,721.15l-8.125-8.125-8.125,8.125-8.125-8.125-8.125,8.125-8.125-8.125-8.3,8.3h65.356l-8.3-8.3Z" fill="url(#linear-gradient-31)"/>
        </g>
        <path id="Path_499" data-name="Path 499" d="M-1380.383,707.084h-.006a3.1,3.1,0,0,0,.429-1.573,3.114,3.114,0,0,0-3.114-3.114h-.037a3.113,3.113,0,0,0-3.077,3.112,3.1,3.1,0,0,0,.43,1.575l-.037,0a3.115,3.115,0,0,0-3.115,3.114,3.115,3.115,0,0,0,3.115,3.115,3.112,3.112,0,0,0,2.684-1.543c.006-.012.015-.022.022-.034a3.112,3.112,0,0,0,2.706,1.577,3.115,3.115,0,0,0,3.114-3.115A3.114,3.114,0,0,0-1380.383,707.084Zm-2.706,1.576-.022-.036h.043Z" fill="url(#linear-gradient-32)"/>
        <path id="Path_500" data-name="Path 500" d="M-1364.122,707.084h-.007a3.088,3.088,0,0,0,.43-1.573,3.115,3.115,0,0,0-3.115-3.114h-.037a3.113,3.113,0,0,0-3.077,3.112,3.108,3.108,0,0,0,.43,1.575l-.037,0a3.114,3.114,0,0,0-3.114,3.114,3.115,3.115,0,0,0,3.114,3.115,3.11,3.11,0,0,0,2.684-1.543c.007-.012.016-.022.022-.034a3.112,3.112,0,0,0,2.707,1.577,3.115,3.115,0,0,0,3.114-3.115A3.114,3.114,0,0,0-1364.122,707.084Zm-2.707,1.576-.022-.036h.044Z" fill="url(#linear-gradient-32)"/>
        <circle id="Ellipse_22" data-name="Ellipse 22" cx="1.11" cy="1.11" r="1.11" transform="translate(-1384.199 713.957)" fill="url(#linear-gradient-34)"/>
        <circle id="Ellipse_23" data-name="Ellipse 23" cx="1.11" cy="1.11" r="1.11" transform="translate(-1368.061 713.957)" fill="url(#linear-gradient-34)"/>
        <circle id="Ellipse_24" data-name="Ellipse 24" cx="1.11" cy="1.11" r="1.11" transform="translate(-1351.923 713.957)" fill="url(#linear-gradient-34)"/>
        <g id="Group_203" data-name="Group 203">
          <path id="Path_501" data-name="Path 501" d="M-1394.618,760.682h30.12s3.242,32.674-40.536,32.674A57.289,57.289,0,0,0-1394.618,760.682Z" fill="url(#linear-gradient-37)"/>
          <path id="Path_502" data-name="Path 502" d="M-1377.764,760.682s.168,17.564-13.467,25.883c0,0-5.709,3.171-13.8,6.791,0,0,41.417,1.708,40.536-32.674Z" fill="url(#linear-gradient-38)"/>
        </g>
        <path id="Path_503" data-name="Path 503" d="M-1363.6,787.29h-.006a3.053,3.053,0,0,0,.423-1.551,3.069,3.069,0,0,0-3.07-3.07h-.015l-.022,0a3.069,3.069,0,0,0-3.034,3.068,3.055,3.055,0,0,0,.424,1.553l-.037,0a3.071,3.071,0,0,0-3.07,3.071,3.071,3.071,0,0,0,3.07,3.07,3.065,3.065,0,0,0,2.647-1.521c.007-.012.015-.022.022-.033a3.068,3.068,0,0,0,2.668,1.554,3.071,3.071,0,0,0,3.071-3.07A3.071,3.071,0,0,0-1363.6,787.29Zm-2.668,1.554-.022-.036h.043Z" fill="#292172"/>
        <path id="Path_504" data-name="Path 504" d="M-1347.862,707.084h-.006a3.1,3.1,0,0,0,.429-1.573,3.114,3.114,0,0,0-3.114-3.114h-.037a3.113,3.113,0,0,0-3.077,3.112,3.1,3.1,0,0,0,.43,1.575l-.037,0a3.115,3.115,0,0,0-3.115,3.114,3.115,3.115,0,0,0,3.115,3.115,3.112,3.112,0,0,0,2.684-1.543c.006-.012.015-.022.022-.034a3.112,3.112,0,0,0,2.706,1.577,3.115,3.115,0,0,0,3.114-3.115A3.114,3.114,0,0,0-1347.862,707.084Zm-2.706,1.576-.022-.036h.043Z" fill="url(#linear-gradient-32)"/>
      </g>
    </g>
  </g>
</svg>
