<svg xmlns="http://www.w3.org/2000/svg" width="22" height="20.629" viewBox="0 0 22 20.629">
  <path id="cardtype_2s" d="M-1347.059,367.2h-.012a5.843,5.843,0,0,0,.812-2.972,5.886,5.886,0,0,0-5.886-5.886l-.028,0a5.884,5.884,0,0,0-5.857,5.884,5.847,5.847,0,0,0,.813,2.975c-.024,0-.047,0-.071,0a5.885,5.885,0,0,0-5.885,5.885,5.885,5.885,0,0,0,5.885,5.886,5.882,5.882,0,0,0,5.115-2.98,5.879,5.879,0,0,0,5.114,2.98,5.886,5.886,0,0,0,5.886-5.886A5.885,5.885,0,0,0-1347.059,367.2Zm-5.114,2.979c-.014-.023-.029-.046-.042-.069l.042,0,.028,0h.012C-1352.146,370.134-1352.161,370.155-1352.173,370.177Z" transform="translate(1363.173 -358.34)" fill="#3e04b1"/>
</svg>
