<svg xmlns="http://www.w3.org/2000/svg" width="72" height="72" viewBox="0 0 72 72">
  <g id="icons_pause" transform="translate(-452 -728)">
    <rect id="Rectangle_111" data-name="Rectangle 111" width="72" height="72" transform="translate(452 728)" fill="none" opacity="0.354"/>
    <g id="Group_126" data-name="Group 126" transform="translate(455 737.5)">
      <path id="Path_266" data-name="Path 266" d="M27.646,11.5H25.4A4.316,4.316,0,0,0,21,15.718V37.393a4.316,4.316,0,0,0,4.4,4.218h2.247a4.316,4.316,0,0,0,4.4-4.218V15.718A4.316,4.316,0,0,0,27.646,11.5Zm3.307,25.893a3.245,3.245,0,0,1-3.307,3.171H25.4a3.245,3.245,0,0,1-3.307-3.171V15.718A3.245,3.245,0,0,1,25.4,12.547h2.247a3.245,3.245,0,0,1,3.307,3.171Z" transform="translate(0)" fill="#fff"/>
      <path id="Path_267" data-name="Path 267" d="M265.888,31.235a.546.546,0,0,0,1.092,0V15.718a4.316,4.316,0,0,0-4.4-4.218H260.4a4.316,4.316,0,0,0-4.4,4.218V37.393a4.316,4.316,0,0,0,4.4,4.218h2.183a4.316,4.316,0,0,0,4.4-4.218.546.546,0,0,0-1.092,0,3.245,3.245,0,0,1-3.307,3.171H260.4a3.245,3.245,0,0,1-3.307-3.171V15.718a3.245,3.245,0,0,1,3.307-3.171h2.183a3.245,3.245,0,0,1,3.307,3.171Z" transform="translate(-220.98)" fill="#fff"/>
    </g>
  </g>
</svg>
