<svg xmlns="http://www.w3.org/2000/svg" width="72" height="72" viewBox="0 0 72 72">
  <g id="icons_tips" transform="translate(-870 -728)">
    <rect id="Rectangle_113" data-name="Rectangle 113" width="72" height="72" transform="translate(870 728)" fill="none" opacity="0.354"/>
    <path id="Path_149" data-name="Path 149" d="M106.618,7.093a.571.571,0,1,0-1.016.52A11.89,11.89,0,0,1,104.51,20.17a5.079,5.079,0,0,0-1.006,3.045v.073a2.822,2.822,0,0,1-2.818,2.819H95.592V18.88A4.229,4.229,0,0,0,99.244,14.7a.571.571,0,1,0-1.141,0,3.081,3.081,0,1,1-6.163,0,.571.571,0,0,0-1.141,0,4.229,4.229,0,0,0,3.652,4.183v7.226H89.357a2.822,2.822,0,0,1-2.818-2.819v-.074A5.135,5.135,0,0,0,85.5,20.123,11.893,11.893,0,0,1,95,1.141h.023a11.8,11.8,0,0,1,9.452,4.683.571.571,0,0,0,.908-.692,13.138,13.138,0,0,0-4.5-3.741A13.04,13.04,0,0,0,82,13.147a12.918,12.918,0,0,0,2.582,7.659,4,4,0,0,1,.815,2.408v.074a3.953,3.953,0,0,0,1.419,3.034,2.412,2.412,0,0,0,.356,4.524,2.411,2.411,0,0,0,1.993,3.771h1.62a4.254,4.254,0,0,0,8.431,0h1.62a2.412,2.412,0,0,0,1.994-3.771,2.412,2.412,0,0,0,.382-4.512,3.953,3.953,0,0,0,1.433-3.046v-.073a3.933,3.933,0,0,1,.776-2.358,13.032,13.032,0,0,0,1.2-13.764ZM95,37.16a3.118,3.118,0,0,1-3.06-2.543h6.121A3.119,3.119,0,0,1,95,37.16Zm7.191-9.912a1.272,1.272,0,1,1,0,2.543H92.258a.571.571,0,1,0,0,1.141h8.579a1.272,1.272,0,1,1,0,2.543H89.166a1.272,1.272,0,0,1,0-2.543h.81a.571.571,0,0,0,0-1.141H87.81a1.272,1.272,0,0,1,0-2.543Z" transform="translate(811 745.001)" fill="#fff"/>
  </g>
</svg>
