<svg xmlns="http://www.w3.org/2000/svg" xmlns:xlink="http://www.w3.org/1999/xlink" width="1279.795" height="594.08" viewBox="0 0 1279.795 594.08">
  <defs>
    <linearGradient id="linear-gradient" x1="0.5" y1="1" x2="0.5" y2="0.306" gradientUnits="objectBoundingBox">
      <stop offset="0" stop-color="#392199" stop-opacity="0"/>
      <stop offset="0" stop-color="#6941b5" stop-opacity="0"/>
      <stop offset="1" stop-color="#5d7fd9" stop-opacity="0.8"/>
    </linearGradient>
  </defs>
  <path id="img_cloud" d="M1280,728.238V222.662a36.868,36.868,0,0,0-19.212,38.853c-1.33.461-2.643.958-3.95,1.467-10.98-13.249-33.843-13.613-52.121-.454-18.891,13.6-25.692,36.45-15.19,51.039a25.708,25.708,0,0,0,6.682,6.379,110.927,110.927,0,0,0-10.327,46.842c0,.791.038,1.573.054,2.361-1.058-.094-2.124-.162-3.208-.162a35.919,35.919,0,0,0-35.781,32.9,111.188,111.188,0,0,0-11.953-2.02,37,37,0,0,0-72.123,16.522,111.956,111.956,0,0,0-27.256,24.321,50.137,50.137,0,0,0-53.759,11.286,63.2,63.2,0,0,0-58.071-11.022,92.7,92.7,0,0,0-3.337-11.816,33.191,33.191,0,1,0-36.239-46.467,93.335,93.335,0,0,0-144.424,66.682,94.375,94.375,0,0,0-9.62-.492,93.361,93.361,0,0,0-86.749,58.872,140.945,140.945,0,0,0-107.689,9.056,63.631,63.631,0,0,0-117.882,1.873,106.381,106.381,0,0,0-26.53-22.178,63.616,63.616,0,0,0-81.092-85.312c-.475-.59-.943-1.185-1.428-1.767a33.179,33.179,0,0,0-35.011-55.767,46.76,46.76,0,0,0-89.205,5.922,140.513,140.513,0,0,0-15.115,2.554,45.424,45.424,0,0,0-45.25-41.6c-1.369,0-2.718.086-4.056.2.02-1,.068-1.985.068-2.986A140.918,140.918,0,0,0,25.5,184.621a46.876,46.876,0,0,0,.666-7.747A46.787,46.787,0,0,0,1.205,135.488v592.75Z" transform="translate(-0.705 -134.658)" stroke="rgba(0,0,0,0)" stroke-width="1" opacity="0.5" fill="url(#linear-gradient)"/>
</svg>
