<svg id="num_12" xmlns="http://www.w3.org/2000/svg" width="15.695" height="22.354" viewBox="0 0 15.695 22.354">
  <path id="Path_613" data-name="Path 613" d="M-809.253,528.863a9.452,9.452,0,0,1-.314,2.509,7.072,7.072,0,0,1-.9,2.03l2.42,2.762-2.488,2.024-2.365-2.653a6.968,6.968,0,0,1-1.7.588,9.211,9.211,0,0,1-1.907.191,7.112,7.112,0,0,1-5.263-1.968,7.41,7.41,0,0,1-1.969-5.483v-5.55a7.482,7.482,0,0,1,1.961-5.49,7.054,7.054,0,0,1,5.258-1.989,7.142,7.142,0,0,1,5.283,1.989,7.42,7.42,0,0,1,1.99,5.49Zm-3.842-5.592a5.19,5.19,0,0,0-.882-3.281,3.068,3.068,0,0,0-2.549-1.107,2.994,2.994,0,0,0-2.529,1.1,5.329,5.329,0,0,0-.848,3.288v5.592a5.405,5.405,0,0,0,.853,3.323,3.009,3.009,0,0,0,2.537,1.107,3.04,3.04,0,0,0,2.549-1.107,5.322,5.322,0,0,0,.869-3.323Z" transform="translate(823.745 -515.834)" fill="#3e04b1"/>
</svg>
