<svg id="num_2" xmlns="http://www.w3.org/2000/svg" width="12.593" height="20.194" viewBox="0 0 12.593 20.194">
  <path id="Path_511" data-name="Path 511" d="M-968.507,63.051h-12.2V60.48l5.51-6.959a15.245,15.245,0,0,0,1.689-2.734,5.189,5.189,0,0,0,.512-2.092,3.711,3.711,0,0,0-.5-2.057,1.715,1.715,0,0,0-1.539-.759,1.833,1.833,0,0,0-1.66.964,4.706,4.706,0,0,0-.582,2.468h-3.787l-.041-.082a6.3,6.3,0,0,1,1.613-4.519,5.706,5.706,0,0,1,4.457-1.853,5.9,5.9,0,0,1,4.383,1.566,5.791,5.791,0,0,1,1.55,4.259,6.519,6.519,0,0,1-.894,3.349,34.094,34.094,0,0,1-3,4.088l-2.707,3.924h7.191Z" transform="translate(981.1 -42.857)" fill="#3e04b1"/>
</svg>
