<svg xmlns="http://www.w3.org/2000/svg" width="12.755" height="20.481" viewBox="0 0 12.755 20.481">
  <g id="num_8" transform="translate(0 0)">
    <path id="Path_543" data-name="Path 543" d="M-968.958,363.63a4.921,4.921,0,0,1-.7,2.619,4.855,4.855,0,0,1-1.914,1.784,5.59,5.59,0,0,1,2.359,1.921,4.906,4.906,0,0,1,.867,2.864,5.416,5.416,0,0,1-1.755,4.307,6.591,6.591,0,0,1-4.493,1.531,7.024,7.024,0,0,1-4.675-1.538,5.309,5.309,0,0,1-1.832-4.3,4.791,4.791,0,0,1,.9-2.864,5.7,5.7,0,0,1,2.453-1.921,4.953,4.953,0,0,1-2.01-1.784,4.79,4.79,0,0,1-.724-2.619,5.055,5.055,0,0,1,1.635-4.04,6.247,6.247,0,0,1,4.244-1.415,5.879,5.879,0,0,1,4.082,1.408A5.166,5.166,0,0,1-968.958,363.63Zm-3.254,9.01a3.44,3.44,0,0,0-.689-2.215,2.108,2.108,0,0,0-1.7-.861,2.361,2.361,0,0,0-1.873.861,3.282,3.282,0,0,0-.739,2.215,3.136,3.136,0,0,0,.739,2.194,2.432,2.432,0,0,0,1.886.814,2.122,2.122,0,0,0,1.7-.814A3.317,3.317,0,0,0-972.212,372.64Zm-.615-8.832a3.324,3.324,0,0,0-.484-1.907,1.5,1.5,0,0,0-1.293-.7,1.756,1.756,0,0,0-1.463.683,3.069,3.069,0,0,0-.533,1.928,3.289,3.289,0,0,0,.546,1.989,1.727,1.727,0,0,0,1.463.745,1.467,1.467,0,0,0,1.286-.738A3.632,3.632,0,0,0-972.827,363.808Z" transform="translate(981.098 -358.175)" fill="#3e04b1"/>
  </g>
</svg>
