<svg id="num_3" xmlns="http://www.w3.org/2000/svg" width="12.594" height="20.481" viewBox="0 0 12.594 20.481">
  <path id="Path_517" data-name="Path 517" d="M-816.4,51.4a2.1,2.1,0,0,0,1.764-.758,3.351,3.351,0,0,0,.587-2.1,2.937,2.937,0,0,0-.615-1.9,2.055,2.055,0,0,0-1.7-.766,1.925,1.925,0,0,0-1.49.67,2.521,2.521,0,0,0-.6,1.75h-3.773l-.028-.082a4.693,4.693,0,0,1,1.655-3.856,6.218,6.218,0,0,1,4.238-1.5,6.67,6.67,0,0,1,4.519,1.463,5.223,5.223,0,0,1,1.688,4.17,4.586,4.586,0,0,1-.738,2.53,5.044,5.044,0,0,1-2.01,1.791A4.715,4.715,0,0,1-810.68,54.6a5.216,5.216,0,0,1,.785,2.912,5.307,5.307,0,0,1-1.825,4.272,6.953,6.953,0,0,1-4.669,1.552,6.727,6.727,0,0,1-4.321-1.47,4.877,4.877,0,0,1-1.777-4.19l.027-.082h3.76a2.937,2.937,0,0,0,.656,1.948,2.066,2.066,0,0,0,1.655.786,2.428,2.428,0,0,0,1.9-.807,2.969,2.969,0,0,0,.725-2.064,3.5,3.5,0,0,0-.676-2.372,2.493,2.493,0,0,0-1.963-.759h-2.01V51.4Z" transform="translate(822.489 -42.857)" fill="#3e04b1"/>
</svg>
