<svg id="num_6" xmlns="http://www.w3.org/2000/svg" width="12.564" height="20.48" viewBox="0 0 12.564 20.48">
  <path id="Path_533" data-name="Path 533" d="M-815.241,200.517a8.082,8.082,0,0,1,1.922.212,9.442,9.442,0,0,1,1.769.635l-.67,2.858a10.614,10.614,0,0,0-1.455-.472,6.769,6.769,0,0,0-1.539-.157,2.9,2.9,0,0,0-2.474,1.333,6.448,6.448,0,0,0-.944,3.766v.6a4.772,4.772,0,0,1,1.676-1.162,5.606,5.606,0,0,1,2.193-.41,4.106,4.106,0,0,1,3.569,1.818,8.166,8.166,0,0,1,1.271,4.772,6.872,6.872,0,0,1-1.7,4.819A5.71,5.71,0,0,1-816.048,221a5.8,5.8,0,0,1-4.648-2.119,8.7,8.7,0,0,1-1.791-5.8v-4.307a8.609,8.609,0,0,1,2.037-6.015A6.724,6.724,0,0,1-815.241,200.517Zm-.834,10.171a3.426,3.426,0,0,0-1.545.322,2.508,2.508,0,0,0-1.012.9v1.231a7.475,7.475,0,0,0,.705,3.582,2.111,2.111,0,0,0,1.879,1.271,1.848,1.848,0,0,0,1.641-1.052,5.135,5.135,0,0,0,.615-2.625,4.886,4.886,0,0,0-.621-2.66A1.9,1.9,0,0,0-816.075,210.688Z" transform="translate(822.487 -200.517)" fill="#3e04b1"/>
</svg>
