<svg xmlns="http://www.w3.org/2000/svg" width="12.184" height="20.193" viewBox="0 0 12.184 20.193">
  <g id="num_5" transform="translate(0 0)">
    <path id="Path_527" data-name="Path 527" d="M-980.456,211.919l1.039-11.115h10.2v3.1h-7.027l-.478,4.826a4.372,4.372,0,0,1,1.265-.711,5.02,5.02,0,0,1,1.619-.314,4.522,4.522,0,0,1,3.877,1.709,7.83,7.83,0,0,1,1.36,4.908,7.447,7.447,0,0,1-1.5,4.8A5.569,5.569,0,0,1-974.727,221a6.643,6.643,0,0,1-4.321-1.463,4.687,4.687,0,0,1-1.736-3.992l.027-.068,3.746-.192a2.911,2.911,0,0,0,.629,2,2.1,2.1,0,0,0,1.655.711,1.82,1.82,0,0,0,1.716-.929,5.605,5.605,0,0,0,.526-2.707,5.677,5.677,0,0,0-.588-2.81,1.917,1.917,0,0,0-1.777-1.032,2.158,2.158,0,0,0-1.45.437,2.271,2.271,0,0,0-.7,1.2Z" transform="translate(980.786 -200.804)" fill="#3e04b1"/>
  </g>
</svg>
