<svg xmlns="http://www.w3.org/2000/svg" width="12.278" height="20.481" viewBox="0 0 12.278 20.481">
  <g id="num_9" transform="translate(0 0)">
    <path id="Path_549" data-name="Path 549" d="M-818.222,375.648a2.393,2.393,0,0,0,2.024-1.114,5.254,5.254,0,0,0,.793-3.083V370.1a3.992,3.992,0,0,1-1.389,1.258,3.572,3.572,0,0,1-1.7.424,4.667,4.667,0,0,1-3.891-1.812,7.71,7.71,0,0,1-1.414-4.874,7.287,7.287,0,0,1,1.709-4.935,5.516,5.516,0,0,1,4.375-1.983,5.6,5.6,0,0,1,4.457,2.031,8.387,8.387,0,0,1,1.737,5.626v5.386a7.586,7.586,0,0,1-1.9,5.421,6.311,6.311,0,0,1-4.8,2.017,8.678,8.678,0,0,1-1.927-.226,8.8,8.8,0,0,1-1.86-.636l.643-2.8a7.593,7.593,0,0,0,1.5.5A7.863,7.863,0,0,0-818.222,375.648Zm.438-6.713a2.541,2.541,0,0,0,1.387-.383,3.007,3.007,0,0,0,.992-1.025v-2.379a5.631,5.631,0,0,0-.629-2.94A1.9,1.9,0,0,0-817.7,361.2a1.834,1.834,0,0,0-1.627,1.141,5.74,5.74,0,0,0-.615,2.755,6,6,0,0,0,.553,2.782A1.739,1.739,0,0,0-817.784,368.935Z" transform="translate(823.8 -358.175)" fill="#3e04b1"/>
  </g>
</svg>
